<svg viewBox="0 0 219 285" fill="none" xmlns="http://www.w3.org/2000/svg">
<path d="M155.227 0H7.5257C3.41356 0 0.0800781 3.33348 0.0800781 9.80196V279.911C0.0800781 281.667 3.41356 285 7.5257 285H211.474C215.586 285 218.919 281.667 218.919 279.911V66.0488C218.919 62.5066 218.446 61.3666 217.611 60.5269L158.392 1.30795C157.553 0.473304 156.413 0 155.227 0Z" fill="#E9E9E0"/>
<path d="M157.848 0.768555V61.0715H218.151L157.848 0.768555Z" fill="#D9D7CA"/>
<path d="M211.474 285H7.5257C3.41356 285 0.0800781 281.667 0.0800781 277.554V198.482H218.919V277.554C218.919 281.667 215.586 285 211.474 285Z" fill="#EAA014"/>
<path d="M53.6266 217.409V257.35C53.6266 259.762 53.1839 261.793 52.3034 263.437C51.423 265.08 50.2423 266.404 48.7562 267.401C47.2701 268.399 45.5652 269.096 43.6415 269.488C41.7177 269.88 39.7329 270.078 37.6921 270.078C36.6742 270.078 35.4731 269.971 34.1092 269.763C32.7453 269.554 31.3254 269.233 29.8648 268.791C28.4041 268.348 26.9995 267.849 25.6559 267.294C24.3123 266.74 23.1774 266.114 22.2461 265.416L25.7933 259.783C26.2565 260.103 26.9181 260.444 27.7782 260.79C28.6382 261.136 29.5798 261.462 30.5976 261.762C31.6155 262.063 32.6842 262.327 33.7988 262.561C34.9133 262.795 35.9566 262.907 36.9287 262.907C39.3868 262.907 41.3462 262.429 42.8068 261.482C44.2674 260.536 45.041 258.917 45.1377 256.648V217.404H53.6266V217.409Z" fill="white"/>
<path d="M95.1685 255.675C95.1685 257.528 94.7868 259.329 94.0183 261.07C93.2498 262.811 92.176 264.342 90.7815 265.661C89.387 266.979 87.677 268.037 85.6311 268.826C83.5852 269.615 81.2747 270.007 78.6741 270.007C77.5595 270.007 76.4144 269.946 75.2286 269.834C74.0428 269.722 72.8519 269.518 71.6458 269.243C70.4396 268.963 69.2894 268.582 68.2003 268.093C67.1112 267.605 66.1748 267.014 65.3809 266.317L66.8415 260.332C67.4929 260.704 68.3123 261.065 69.3098 261.411C70.3073 261.757 71.3353 262.083 72.4041 262.383C73.4728 262.683 74.5365 262.928 75.6052 263.116C76.674 263.304 77.6664 263.396 78.5977 263.396C81.4274 263.396 83.5954 262.734 85.1018 261.411C86.6083 260.088 87.3615 258.128 87.3615 255.533C87.3615 253.955 86.8322 252.612 85.7635 251.497C84.6947 250.382 83.3613 249.375 81.7633 248.469C80.1652 247.563 78.4349 246.662 76.5773 245.756C74.7197 244.85 72.9843 243.782 71.3608 242.555C69.7373 241.329 68.3937 239.878 67.325 238.209C66.2562 236.54 65.7269 234.453 65.7269 231.949C65.7269 229.679 66.1443 227.659 66.9789 225.898C67.8135 224.137 68.9383 222.636 70.3531 221.409C71.7679 220.183 73.4168 219.241 75.2948 218.59C77.1727 217.938 79.1576 217.618 81.2442 217.618C83.3766 217.618 85.5344 217.816 87.7127 218.208C89.8909 218.6 91.6518 219.241 93.0004 220.122C92.7205 220.722 92.3999 221.384 92.0284 222.106C91.6568 222.829 91.3057 223.496 90.9851 224.122C90.6644 224.748 90.3845 225.272 90.1504 225.689C89.9163 226.107 89.7789 226.341 89.7331 226.387C89.4532 226.249 89.1427 226.066 88.7916 225.832C88.4404 225.598 87.9468 225.369 87.2953 225.135C86.6439 224.9 85.7889 224.743 84.7202 224.646C83.6514 224.549 82.2824 224.575 80.6131 224.717C79.6818 224.814 78.8064 225.073 77.9667 225.516C77.1269 225.959 76.389 226.498 75.7376 227.15C75.0861 227.801 74.5772 228.529 74.2057 229.343C73.8342 230.158 73.651 230.936 73.651 231.674C73.651 233.527 74.1802 235.023 75.249 236.163C76.3177 237.303 77.641 238.295 79.2135 239.156C80.7861 240.016 82.5063 240.85 84.3639 241.659C86.2215 242.469 87.9468 243.461 89.5499 244.616C91.153 245.772 92.4813 247.227 93.5501 248.963C94.6188 250.698 95.1685 252.937 95.1685 255.675Z" fill="white"/>
<path d="M145.544 243.848C145.544 248.164 144.999 251.965 143.91 255.258C142.821 258.551 141.309 261.289 139.386 263.467C137.462 265.645 135.212 267.294 132.637 268.409C130.062 269.523 127.243 270.078 124.184 270.078C121.125 270.078 118.306 269.523 115.731 268.409C113.155 267.294 110.906 265.65 108.982 263.467C107.059 261.284 105.547 258.551 104.458 255.258C103.369 251.965 102.824 248.158 102.824 243.848C102.824 239.537 103.369 235.741 104.458 232.473C105.547 229.206 107.059 226.478 108.982 224.3C110.906 222.122 113.155 220.463 115.731 219.323C118.306 218.183 121.125 217.618 124.184 217.618C127.243 217.618 130.062 218.183 132.637 219.323C135.212 220.463 137.462 222.117 139.386 224.3C141.309 226.483 142.821 229.206 143.91 232.473C144.999 235.741 145.544 239.532 145.544 243.848ZM123.975 263.263C125.69 263.263 127.324 262.928 128.881 262.256C130.439 261.584 131.828 260.48 133.055 258.953C134.281 257.426 135.248 255.416 135.94 252.932C136.632 250.449 137.009 247.426 137.055 243.853C137.009 240.372 136.648 237.415 135.976 234.982C135.304 232.55 134.378 230.539 133.192 228.962C132.006 227.384 130.663 226.249 129.156 225.552C127.65 224.855 126.062 224.509 124.388 224.509C122.672 224.509 121.039 224.829 119.481 225.481C117.924 226.132 116.535 227.231 115.308 228.784C114.082 230.336 113.115 232.341 112.423 234.804C111.725 237.262 111.354 240.275 111.308 243.848C111.354 247.329 111.715 250.296 112.387 252.754C113.059 255.212 113.985 257.217 115.171 258.775C116.357 260.332 117.7 261.462 119.207 262.185C120.713 262.907 122.306 263.263 123.975 263.263Z" fill="white"/>
<path d="M194.391 218.453V269.732H185.902L165.795 234.387V269.732H157.306V218.453H165.795L185.902 253.798V218.453H194.391Z" fill="white"/>
<path fill-rule="evenodd" clip-rule="evenodd" d="M106.926 117.5L90.1944 134.193L86.3333 130.341L109.5 107.227L132.667 130.341L128.806 134.193L112.074 117.5V174H106.926V117.5ZM101.778 143.182H65.7552C54.4042 143.182 45.1481 133.983 45.1481 122.636C45.1481 112.901 51.9674 104.719 61.1126 102.616C60.7711 100.781 60.5926 98.8883 60.5926 96.9545C60.5926 79.9341 74.422 66.1364 91.4815 66.1364C104.946 66.1364 116.399 74.7318 120.627 86.7231C124.614 83.486 129.7 81.5455 135.241 81.5455C147.382 81.5455 157.342 90.8637 158.327 102.723C167.234 104.983 173.852 113.042 173.852 122.636C173.852 133.96 164.626 143.182 153.245 143.182H117.222V148.318H153.262C167.477 148.318 179 136.791 179 122.636C179 111.868 172.376 102.648 162.953 98.8319C160.261 86.0256 148.876 76.4091 135.241 76.4091C130.798 76.4091 126.595 77.4298 122.853 79.2489C116.662 68.3524 104.932 61 91.4815 61C71.5788 61 55.4444 77.0974 55.4444 96.9545C55.4444 97.6641 55.465 98.3689 55.5057 99.0684C46.3819 103.024 40 112.102 40 122.636C40 136.82 51.4932 148.318 65.7379 148.318H101.778V143.182Z" fill="#EAA014"/>
</svg>
